<?xml version="1.0" standalone="no"?>
<svg xmlns="http://www.w3.org/2000/svg" viewBox="0 0 86.976 36" width="86.976" height="36"><g fill="#ff8888" color="#ff8888" transform="translate(0 4) scale(0.21875)"><svg width="128.0" height="128.0" x="0.0" y="0.0" viewBox="0 0 128 128"><path d="M16 0l-16 68h32l-8 40h-6.594c-.8 0-1.206.606-.906 1.406l6.906 17.188c.4.8 1.1.906 1.5.406l17.906-17.906c.6-.6.394-1.094-.406-1.094h-8.406l16-52h-32l16-56h-18z" transform="translate(39)"></path></svg></g><path fill="#0b0cac" fill-rule="nonzero" d="M2.81 16.70L0.10 16.70Q0 16.70 0 16.58L0 16.58L0.05 0.10Q0.05 0 0.14 0L0.14 0L4.99 0Q6.29 0 7.38 0.64Q8.47 1.27 9.12 2.34Q9.77 3.41 9.77 4.75L9.77 4.75Q9.77 5.64 9.50 6.35Q9.24 7.06 8.88 7.55Q8.52 8.04 8.23 8.28L8.23 8.28Q9.53 9.72 9.53 11.66L9.53 11.66L9.55 16.58Q9.55 16.70 9.43 16.70L9.43 16.70L6.72 16.70Q6.62 16.70 6.62 16.63L6.62 16.63L6.62 11.66Q6.62 10.80 6.01 10.16Q5.40 9.53 4.51 9.53L4.51 9.53L2.93 9.53L2.90 16.58Q2.90 16.70 2.81 16.70L2.81 16.70ZM2.93 2.88L2.93 6.65L4.99 6.65Q5.74 6.65 6.31 6.10Q6.89 5.54 6.89 4.75L6.89 4.75Q6.89 3.98 6.32 3.43Q5.76 2.88 4.99 2.88L4.99 2.88L2.93 2.88ZM19.42 16.70L11.66 16.70Q11.57 16.70 11.57 16.58L11.57 16.58L11.59 0.10Q11.59 0 11.69 0L11.69 0L19.39 0Q19.49 0 19.49 0.12L19.49 0.12L19.49 2.81Q19.49 2.90 19.39 2.90L19.39 2.90L14.47 2.90L14.47 6.65L19.39 6.65Q19.49 6.65 19.49 6.74L19.49 6.74L19.51 9.46Q19.51 9.55 19.42 9.55L19.42 9.55L14.47 9.55L14.47 13.75L19.42 13.75Q19.51 13.75 19.51 13.87L19.51 13.87L19.51 16.61Q19.51 16.70 19.42 16.70L19.42 16.70ZM20.59 16.58L20.59 16.58L23.57 0.10Q23.59 0 23.69 0L23.69 0L27.17 0Q27.26 0 27.29 0.10L27.29 0.10L30.14 16.58Q30.17 16.70 30.05 16.70L30.05 16.70L27.38 16.70Q27.29 16.70 27.26 16.58L27.26 16.58L27.00 14.83L23.74 14.83L23.47 16.58Q23.45 16.70 23.35 16.70L23.35 16.70L20.69 16.70Q20.59 16.70 20.59 16.58ZM25.30 5.52L24.22 12.26L26.52 12.26L25.54 5.52L25.39 4.63L25.30 5.52ZM34.46 16.70L31.75 16.70Q31.66 16.70 31.66 16.58L31.66 16.58L31.70 0.12Q31.70 0 31.80 0L31.80 0L34.49 0Q34.58 0 34.58 0.12L34.58 0.12L34.58 5.81L38.35 0.10Q38.42 0 38.52 0L38.52 0L41.28 0Q41.38 0 41.33 0.10L41.33 0.10L37.18 6.72L41.83 16.61Q41.88 16.70 41.71 16.70L41.71 16.70L38.78 16.70Q38.66 16.70 38.64 16.61L38.64 16.61L35.40 9.55L34.56 10.87L34.56 16.58Q34.56 16.70 34.46 16.70L34.46 16.70ZM47.66 16.70L44.95 16.70Q44.86 16.70 44.86 16.58L44.86 16.58L44.86 2.90L41.74 2.90Q41.62 2.90 41.62 2.78L41.62 2.78L41.64 0.10Q41.64 0 41.74 0L41.74 0L50.86 0Q50.98 0 50.98 0.10L50.98 0.10L50.98 2.78Q50.98 2.90 50.88 2.90L50.88 2.90L47.74 2.90L47.76 16.58Q47.76 16.70 47.66 16.70L47.66 16.70Z" transform="translate(36, 9.648)"></path></svg>